<svg xmlns="http://www.w3.org/2000/svg" width="600" height="591.2" viewBox="0 0 600 591.2"><filter id="a"><feGaussianBlur result="offset-blur" stdDeviation="3"/></filter><path d="M7 530.1v61.1h593v-61.1H7zm227.9-392.6c3.2 0 7.3-2.5 12.6-7.5 4.5-4.4 7.9-8.6 10.4-12.7 15.5 24.6 23.3 44.7 23.3 60.6 0 7.9-3.5 14.3-10.5 19.3-6.4 4.4-13.7 6.6-22.1 6.6-5.6 0-10.1-1.2-13.4-3.6-1.5 2.6-3.1 4.7-4.8 6.4 5.1 3.4 11.1 5.1 17.9 5.1 12 0 21.6-2.9 29.1-8.7 7.9-6.3 12-15.1 12-26.3 0-7.3-1.6-15.3-4.8-24.1-2.1-5.4-5.4-12.7-10.1-22.1-4.6-8.9-8.2-15.8-10.7-20.5-.9-4.1-1.3-7.2-1.5-9.5-.5-1.7-1.6-2.5-3.3-2.1-.7.1-2.6 2.8-5.4 7.9-3.8 6.6-6.7 11.3-8.6 13.9-3.5 4.9-6.7 7.4-9.4 7.4-.4-.8-.5-2.1-.5-4.2 0-6.9 1-14.2 2.8-22.2 1.3-5.7 2.1-8.5 2.1-8 0-1-.6-3.3-4.2-2.9-.2 0-.4 0-.5.1-3.2 2.4-5.5 8.7-7 19.2-.9 6.2-1.3 11.8-1.3 17 0 3.6.4 6.1 1 7.4 1.2 2.4 3.5 3.5 6.9 3.5zm257.2 95.7c.2 0 .5-.1.7-.2.2-.1.4-.4.5-.6.1-.3.2-.6.3-1 .1-.4.1-.9.1-1.4 0-.6 0-1.1-.1-1.5-.1-.4-.2-.7-.3-1.1-.1-.3-.3-.5-.5-.6-.2-.1-.4-.2-.7-.2h-29.9c-.6 0-1.2.3-1.9.8-.6.5-.9 1.5-.9 3v70.5c0 1.4.3 2.4.9 3 .6.5 1.3.8 1.9.8h30.4c.2 0 .5-.1.7-.2.2-.1.4-.4.5-.6.2-.3.3-.6.3-1 .1-.4.1-.9.1-1.4 0-.6 0-1.1-.1-1.5-.1-.4-.2-.8-.3-1-.1-.2-.3-.5-.5-.6-.2-.1-.4-.2-.7-.2h-27.1v-31.1h22.9c.3 0 .5-.1.7-.2.2-.1.4-.3.5-.5.1-.2.2-.6.3-.9.1-.4.1-.8.1-1.4 0-.6 0-1.1-.1-1.5-.1-.4-.2-.8-.3-1-.1-.2-.3-.5-.5-.6-.2-.1-.5-.2-.7-.2h-22.9v-27.5h26.6zm-144.8 32.2c-1.8-1.2-3.7-2.4-5.6-3.4-1.9-1.1-3.7-2.1-5.6-3.2-1.8-1.1-3.4-2.3-4.9-3.6-1.4-1.3-2.6-2.8-3.5-4.6-.9-1.7-1.3-3.8-1.3-6.2 0-1.6.2-3.2.7-4.7.5-1.5 1.2-2.8 2.2-3.9 1-1.1 2.2-2 3.6-2.6 1.5-.6 3.2-1 5.2-1s3.8.3 5.4.9c1.6.6 2.9 1.2 4.1 2 1.1.7 2.1 1.4 2.8 2 .7.6 1.3.9 1.7.9.2 0 .4-.1.5-.2.1-.2.3-.4.4-.7.1-.3.2-.7.2-1.1 0-.4.1-.9.1-1.4 0-.6 0-1-.1-1.4 0-.3-.1-.7-.1-1-.1-.2-.1-.5-.2-.7-.1-.2-.3-.5-.6-.8-.3-.4-1-.9-2-1.5s-2.1-1.2-3.4-1.7c-1.3-.5-2.6-.9-4-1.2-1.4-.3-2.8-.5-4.2-.5-2.7 0-5.3.4-7.5 1.3-2.3.9-4.2 2.2-5.9 3.8-1.6 1.7-2.9 3.7-3.8 6.1-.9 2.4-1.4 5.1-1.4 8.1 0 3.1.4 5.8 1.3 8s2 4.2 3.4 5.9c1.4 1.7 3.1 3.2 4.8 4.4 1.8 1.3 3.7 2.4 5.5 3.5 1.9 1.1 3.7 2.1 5.5 3.2 1.8 1.1 3.4 2.2 4.8 3.5 1.4 1.3 2.6 2.8 3.4 4.6.9 1.7 1.3 3.8 1.3 6.2 0 2.3-.4 4.4-1 6.2-.7 1.8-1.6 3.4-2.9 4.6-1.2 1.2-2.7 2.2-4.4 2.9-1.7.7-3.6 1-5.6 1-2.5 0-4.7-.4-6.6-1.1-1.9-.7-3.5-1.5-4.9-2.3-1.3-.8-2.5-1.6-3.3-2.3-.9-.7-1.5-1.1-2-1.1-.2 0-.4 0-.6.1-.2.1-.3.3-.5.6-.1.3-.2.6-.3 1.1-.1.5-.1 1-.1 1.7 0 .9.1 1.7.2 2.3.2.6.4 1.2.8 1.6.4.5 1.1 1 2 1.7 1 .7 2.2 1.3 3.6 2 1.4.6 3.1 1.2 4.9 1.6 1.8.5 3.8.7 5.9.7 3 0 5.9-.5 8.4-1.5 2.6-1 4.8-2.5 6.7-4.4 1.9-1.9 3.3-4.2 4.4-7 1-2.7 1.6-5.8 1.6-9.3 0-3.1-.4-5.7-1.3-7.9-.8-2.2-2-4.2-3.5-5.9-.8-1.6-2.5-3.1-4.3-4.3zM195.7 447.2c10.8 0 22.9-6 36.3-17.9-1.6 5.3-3.3 10.7-5 16 6-.7 14.1-1 24.5-1 5.4-20.5 9.8-33.9 13.2-40.2 3.4-6.4 8.4-13.2 15-20.5 6.6-7.3 11.4-10.9 14.4-10.9 1.7 0 2.6 1 2.6 3.1 0 1.3-2.1 8.2-6.2 20.9l-11.9 36.2c-1.1 3.4-1.6 6-1.6 8 0 1.8.7 3.2 2 4.5 1.3 1.2 2.9 1.8 4.8 1.8 4.7 0 10.5-2.1 17.3-6.4 4.4-2.7 9-6.3 13.9-10.8 1.2 3.3 2.8 6.2 5 8.7 4.8 5.7 11.1 8.5 19.1 8.5 9.7 0 19.1-3.1 28.3-9.3 7-4.7 13-10.7 17.9-17.9.6 7.5 2.9 13.8 7 18.6 4.8 5.7 11.1 8.5 19.1 8.5 9.7 0 19.1-3.1 28.3-9.3 9.2-6.2 16.6-14.5 22.1-24.9 5.5-10.4 8.3-21.4 8.3-33.1 0-9.7-2.2-17.1-6.7-22.2-4.5-5.1-10.8-7.6-18.9-7.6-10 0-19.6 3.1-28.8 9.3-7 4.7-13 10.7-17.9 17.8-.4-8.4-2.6-14.9-6.6-19.5-4.5-5.1-10.8-7.6-18.9-7.6-10 0-19.6 3.1-28.8 9.3-9.2 6.2-16.6 14.5-22.2 24.9-5.6 10.4-8.3 21.1-8.3 32 0 1.9.1 3.7.3 5.4-2.7 2-4.6 3-5.7 3-1.2 0-1.8-.9-1.8-2.6 0-2.8 3-12.9 8.9-30.5 5.9-16.9 8.9-27.9 8.9-33 0-2.8-.9-4.9-2.6-6.3-1.7-1.4-3.8-2.2-6.3-2.2-5.4 0-12.2 2.9-20.4 8.7-8.2 5.8-17.2 15.2-26.9 28.3l-.4-.4c.6-1.1 1.6-4.3 3.1-9.6l11.1-36.3c4.1-13.5 8.8-26.5 14.1-39.1 1.4-1 2.7-2.2 3.8-3.6 2.1-2.5 3.7-5.6 4.8-9.3 1.1-3.7 1.7-7.9 1.7-12.7v-48.1c0-.2 0-.5-.1-.7-.1-.2-.3-.4-.5-.5-.2-.1-.5-.2-.9-.3-.5-.1-1-.1-1.4-.1-.6 0-1.1 0-1.5.1-.4.1-.7.2-.9.3-.2.1-.4.3-.5.5-.1.2-.1.4-.1.7V276c0 3.9-.4 7.2-1.2 10.1-.8 2.9-1.9 5.3-3.4 7.2-1.5 1.9-3.3 3.4-5.4 4.3-2.1.9-4.5 1.4-7.2 1.4s-5.1-.5-7.2-1.5c-2.1-1-3.9-2.5-5.4-4.4-1.5-2-2.6-4.4-3.4-7.3-.8-2.9-1.2-6.4-1.2-10.3v-47.8c0-.2 0-.5-.1-.7-.1-.2-.3-.4-.5-.5-.2-.1-.6-.2-1-.3-.5-.1-1-.1-1.4-.1-.6 0-1.1 0-1.5.1l-.9.3c-.2.1-.4.3-.5.5-.1.2-.1.4-.1.7v49c0 4.7.6 8.9 1.7 12.5 1.1 3.6 2.7 6.6 4.7 9.1 2 2.4 4.4 4.3 7.2 5.5.4.2.8.4 1.3.5-6.3 2.2-13.4 4.3-21.2 6.2l-2.1 7.3c4.2-.7 7.4-1.1 9.6-1.1 2.4 0 3.6 1.1 3.6 3.1 0 .9-.9 4.7-2.8 11.2l-6.8 23.2c-6.4-2.8-12.9-4.1-19.4-4.1-10.6 0-20.5 3.2-29.8 9.7-9.3 6.5-16.7 15.1-22.2 26-5.5 10.8-8.3 21.5-8.3 32.1 0 9.2 1.8 16.3 5.4 21.5 3.2 5.2 8.5 7.8 15.5 7.8zm221.5-65.6c5.2-14.7 11.3-22 18.3-22S446 365.4 446 377c0 13.2-2.8 26.6-8.4 40.3-5.6 13.7-11.6 20.6-18 20.6-3.2 0-5.6-1.7-7.4-5.1-1.8-3.4-2.7-8-2.7-13.8-.1-10.3 2.5-22.7 7.7-37.4zm-72.2 0c5.2-14.7 11.3-22 18.3-22s10.5 5.8 10.5 17.4c0 13.2-2.8 26.6-8.4 40.3-5.6 13.7-11.6 20.6-18 20.6-3.2 0-5.6-1.7-7.4-5.1-1.8-3.4-2.7-8-2.7-13.8-.2-10.3 2.4-22.7 7.7-37.4zm-137.1-4.9c5.9-11.4 12.5-17.1 19.8-17.1 8 0 11.9 6.5 11.9 19.5l6.9.5-7.9 27c-1.1 3.6-2.1 7.1-3.1 10.4l-1.2-1.4c-10.8 9.5-19.1 14.2-24.6 14.2-4.1 0-7-1.9-8.5-5.8s-2.3-8.1-2.3-12.7c.2-11.8 3.1-23.3 9-34.6zm348.4-146c-1.6 1.7-2.9 3.7-3.8 6.1-.9 2.4-1.4 5.1-1.4 8.1 0 3.1.4 5.8 1.3 8s2 4.2 3.4 5.9c1.4 1.7 3.1 3.2 4.8 4.4 1.8 1.2 3.6 2.4 5.5 3.5s3.7 2.1 5.5 3.2c1.8 1.1 3.4 2.2 4.8 3.6 1.4 1.3 2.6 2.8 3.4 4.6.9 1.7 1.3 3.8 1.3 6.2 0 2.3-.3 4.4-1 6.2-.7 1.8-1.6 3.4-2.9 4.6-1.2 1.2-2.7 2.2-4.4 2.9-1.7.7-3.6 1-5.6 1-2.5 0-4.7-.4-6.6-1.1-1.9-.7-3.5-1.5-4.9-2.3-1.3-.8-2.5-1.6-3.3-2.3-.9-.7-1.5-1.1-2-1.1-.2 0-.4.1-.6.1-.2.1-.3.3-.5.6-.1.3-.2.6-.3 1.1-.1.5-.1 1-.1 1.7 0 .9.1 1.7.3 2.3.2.6.4 1.2.8 1.6.4.5 1.1 1 2 1.7 1 .7 2.2 1.3 3.6 2 1.4.6 3.1 1.2 4.9 1.7 1.8.5 3.8.7 5.9.7 3 0 5.9-.5 8.4-1.5 2.6-1 4.8-2.5 6.7-4.4 1.9-1.9 3.3-4.2 4.4-7 1-2.7 1.6-5.8 1.6-9.3 0-3.1-.4-5.7-1.3-7.9-.8-2.2-2-4.2-3.5-5.9-1.5-1.7-3.1-3.2-4.9-4.4-1.8-1.2-3.7-2.4-5.6-3.4-1.9-1.1-3.7-2.1-5.6-3.2-1.8-1.1-3.4-2.3-4.9-3.6-1.4-1.3-2.6-2.8-3.5-4.6-.9-1.7-1.3-3.8-1.3-6.2 0-1.6.2-3.2.7-4.7.5-1.5 1.2-2.8 2.2-3.9 1-1.1 2.2-2 3.7-2.6 1.5-.6 3.2-1 5.2-1s3.8.3 5.4.9c1.6.6 2.9 1.2 4.1 2 1.1.7 2.1 1.4 2.8 2 .7.6 1.3.9 1.7.9.2 0 .4-.1.5-.2.1-.2.3-.4.4-.7.1-.3.2-.7.2-1.1.1-.4.1-.9.1-1.4 0-.6 0-1-.1-1.4 0-.3-.1-.7-.1-1-.1-.2-.1-.5-.2-.7-.1-.2-.3-.5-.6-.8-.3-.4-1-.9-2-1.5s-2.1-1.2-3.4-1.7c-1.3-.5-2.6-.9-4-1.2-1.4-.3-2.8-.5-4.2-.5-2.7 0-5.3.5-7.5 1.3-1.9.8-3.9 2-5.5 3.7zm-46.5 0c-1.6 1.7-2.9 3.7-3.8 6.1-.9 2.4-1.4 5.1-1.4 8.1 0 3.1.4 5.8 1.3 8s2 4.2 3.4 5.9c1.4 1.7 3.1 3.2 4.8 4.4 1.8 1.2 3.6 2.4 5.5 3.5s3.7 2.1 5.5 3.2c1.8 1.1 3.4 2.2 4.8 3.6 1.4 1.3 2.6 2.8 3.4 4.6.9 1.7 1.3 3.8 1.3 6.2 0 2.3-.3 4.4-1 6.2-.7 1.8-1.6 3.4-2.9 4.6-1.2 1.2-2.7 2.2-4.4 2.9-1.6.6-3.3.9-5.2 1l-2.5-2.3c-1 .6-2 1.1-3.1 1.7-.5-.1-1-.3-1.4-.4-1.9-.7-3.5-1.5-4.9-2.3-1.4-.8-2.5-1.6-3.3-2.3-.8-.7-1.5-1.1-2-1.1-.2 0-.4.1-.6.1-.2.1-.3.3-.5.6-.1.3-.2.6-.3 1.1-.1.5-.1 1-.1 1.7 0 .9.1 1.7.2 2.3.2.6.4 1.2.8 1.6.4.5 1 1 2 1.7.4.3.9.6 1.4.8-7.7 3.1-16.9 5.9-27.6 8.3l-1.8 6.7c3.8-.5 6.6-.7 8.7-.7 1.6 0 2.8.2 3.5.7.7.5 1 1.5 1 3 0 1.8-5.2 20.1-15.7 55.1l-13.3 45.4c-3.8 12.7-5.6 19.8-5.6 21.5 0 3.3 1.8 5 5.5 5 9.7 0 23.3-8.6 40.9-25.9l-4.8-5c-1.1.8-1.6 1.4-1.8 1.6-4.8 4.2-8.2 6.4-10.4 6.4-1.1 0-1.6-.6-1.6-1.8 0-.3.1-.7.3-1.2l7.1-25.5c3.1-11 7.8-26.5 14.2-46.4 5.6-17.4 10.7-32 15.4-43.7 2.7-.1 5.1-.6 7.4-1.5 2.6-1 4.8-2.5 6.7-4.4 1.9-1.9 3.3-4.2 4.4-7 1-2.7 1.5-5.8 1.5-9.3 0-3.1-.4-5.7-1.3-7.9-.8-2.2-2-4.2-3.5-5.9-1.5-1.7-3.1-3.2-4.9-4.4-1.8-1.2-3.7-2.4-5.6-3.4-1.9-1.1-3.7-2.1-5.6-3.2-1.8-1.1-3.5-2.3-4.9-3.6-1.4-1.3-2.6-2.8-3.5-4.6-.9-1.7-1.3-3.8-1.3-6.2 0-1.6.2-3.2.7-4.7.5-1.5 1.2-2.8 2.2-3.9 1-1.1 2.2-2 3.7-2.6 1.5-.6 3.2-1 5.2-1s3.8.3 5.4.9c1.6.6 2.9 1.2 4.1 2 1.1.7 2.1 1.4 2.8 2 .8.6 1.3.9 1.7.9.2 0 .4-.1.5-.2.2-.2.3-.4.4-.7.1-.3.2-.7.2-1.1 0-.4.1-.9.1-1.4v-1.4c0-.3-.1-.7-.2-1 0-.2-.1-.5-.2-.7-.1-.2-.3-.5-.6-.8-.3-.4-1-.9-2-1.5s-2.1-1.2-3.4-1.7c-1.3-.5-2.6-.9-4-1.2-1.4-.3-2.8-.5-4.2-.5-2.7 0-5.3.5-7.5 1.3-1.7.8-3.6 2-5.3 3.7zm-115-3.3c-.6.5-.9 1.5-.9 3v73.1c0 .2 0 .5.1.7.1.2.3.4.5.5.2.1.6.2 1 .3.4.1.9.1 1.4.1.6 0 1.1 0 1.5-.1l.9-.3c.2-.1.4-.3.5-.5.1-.2.2-.4.2-.7v-59.6c0-3.1 0-6.1-.1-9h.1c1.1 2.5 2.2 4.9 3.3 7.3 1.1 2.5 2.3 4.9 3.4 7.3l22.9 48.8c.6 1.3 1.2 2.4 1.7 3.3.5.8 1 1.5 1.5 2s1.1.9 1.6 1.1c.6.2 1.2.3 1.8.3h1.3c.3 0 .6-.1 1-.2s.7-.3 1-.6c.3-.3.5-.7.7-1.2.2-.5.3-1.1.3-1.8V228c0-.2-.1-.5-.2-.7-.1-.2-.3-.4-.5-.5-.2-.1-.6-.2-.9-.3-.4-.1-.9-.1-1.4-.1-.6 0-1.1 0-1.5.1-.4.1-.7.2-.9.3-.2.1-.4.3-.5.5-.1.2-.1.4-.1.7v66.6c-.9-2-1.8-4.1-2.7-6.1-.9-2-1.8-4.1-2.8-6.1-.9-2.1-1.9-4.2-2.9-6.3-1-2.2-2.1-4.5-3.1-6.7L405.2 232c-.5-1.1-1-2-1.4-2.7-.4-.7-.8-1.3-1.3-1.6-.4-.4-.9-.7-1.5-.8-.5-.2-1.2-.2-2-.2h-2.5c-.5-.1-1.1.2-1.7.7zm49-81.4c.9.6 1.9.9 3.1.9 2 0 3.6-.5 4.9-1.5 1.3-1.1 2-2.5 2-4.4 0-1.2-.3-2.6-.8-4.1-.3-.9-.9-2.1-1.7-3.7-.8-1.5-1.4-2.7-1.8-3.5-.1-.7-.2-1.2-.2-1.6-.1-.3-.3-.4-.6-.4-.1 0-.4.5-.9 1.3-.6 1.1-1.1 1.9-1.4 2.3-.6.8-1.1 1.3-1.6 1.3-.1-.1-.1-.4-.1-.7 0-1.2.2-2.4.5-3.7.2-1 .3-1.4.3-1.3 0-.2-.1-.6-.7-.5h-.1c-.5.4-.9 1.5-1.2 3.2-.1 1-.2 2-.2 2.9 0 .6.1 1 .2 1.3.2.4.6.6 1.2.6.5 0 1.2-.4 2.1-1.3.8-.7 1.3-1.4 1.7-2.1 2.6 4.1 3.9 7.5 3.9 10.2 0 1.3-.6 2.4-1.8 3.2-1.1.7-2.3 1.1-3.7 1.1-1.8 0-2.9-.8-3.3-2.3-.1-.6.1-1.5.7-2.7l.9-1.8h-.3c-.8.7-1.4 1.4-1.9 2.2-.5.8-.7 1.6-.7 2.3.1 1.2.6 2.1 1.5 2.8zm38.7-24.3l6.2 10.5h.8l6.2-10.6v12.6h1.6v-15.8h-1.4l-6.8 11.7-6.9-11.7h-1.4v15.8h1.6v-12.5zm31.2 11.4c1-.7 1.5-1.8 1.5-3.1 0-1.1-.3-1.9-.8-2.6-.6-.7-1.4-1.1-2.4-1.3.8-.3 1.3-.8 1.8-1.4.4-.6.6-1.3.6-2.2 0-1.3-.5-2.3-1.5-3-1-.7-2.3-1.1-4.1-1.1H502v15.8h7.3c1.9 0 3.4-.4 4.4-1.1zm-10-13.3h5c1.3 0 2.3.2 3 .7.7.5 1 1.2 1 2.1 0 .9-.3 1.6-1 2.1s-1.7.7-3 .7h-5v-5.6zm0 13v-5.9h5.6c2.9 0 4.3 1 4.3 3 0 1-.4 1.8-1.1 2.3-.7.5-1.8.7-3.2.7h-5.6zm15-20l-3.7 15.1h3.7v-15.1zm11.7 21.4h1.7v-14.3h5.5v-1.4h-12.8v1.4h5.5v14.3zm12.2-15.8H541v15.8h1.7v-15.8zm9.7 14.9c1.3.7 2.7 1 4.2 1 1.6 0 3-.3 4.2-1 1.3-.7 2.2-1.6 3-2.9.7-1.2 1.1-2.6 1.1-4.1 0-1.5-.4-2.9-1.1-4.1-.7-1.2-1.7-2.2-3-2.9-1.3-.7-2.7-1-4.2-1-1.6 0-3 .3-4.2 1-1.3.7-2.3 1.7-3 2.9s-1.1 2.6-1.1 4.1c0 1.5.4 2.9 1.1 4.1s1.7 2.2 3 2.9zm-1.6-10.3c.6-1 1.4-1.8 2.4-2.3 1-.6 2.1-.8 3.4-.8 1.2 0 2.4.3 3.4.8 1 .6 1.8 1.3 2.4 2.3.6 1 .9 2.1.9 3.3 0 1.2-.3 2.3-.9 3.3-.6 1-1.4 1.8-2.4 2.3-1 .6-2.1.8-3.4.8-1.2 0-2.4-.3-3.4-.8-1-.6-1.8-1.3-2.4-2.3-.6-1-.9-2.1-.9-3.3.1-1.2.4-2.3.9-3.3zm21.4-1.6l10.1 12.8h1.4v-15.8H582v12.8l-10.2-12.8h-1.4v15.8h1.7v-12.8zm-109.7 8.3h10.1l1.9 4.7h5.3l-9.7-21.8h-5l-9.7 21.8h5.2l1.9-4.7zm5-12.2l3.5 8.3H464l3.4-8.3zM374 129.3h4.5c2.1 0 3.8-.5 5-1.5 1.2-1 1.8-2.4 1.8-4.2s-.6-3.2-1.8-4.2-2.9-1.5-5-1.5h-6.3v16.8h1.8v-5.4zm0-9.9h4.5c1.7 0 2.9.4 3.8 1.1.9.7 1.3 1.8 1.3 3.1s-.4 2.4-1.3 3.1c-.9.7-2.2 1.1-3.8 1.1H374v-8.4zm-11.2 15.4c2.2 0 3.9-.6 5.1-1.9 1.2-1.2 1.8-3.1 1.8-5.4v-9.6H368v9.5c0 2-.4 3.4-1.3 4.4-.9 1-2.2 1.4-3.8 1.4-1.7 0-2.9-.5-3.8-1.4-.9-1-1.3-2.4-1.3-4.4v-9.5H356v9.6c0 2.4.6 4.2 1.8 5.4 1.2 1.3 2.9 1.9 5 1.9zm-51.3-1.1c1.3.7 2.9 1.1 4.5 1.1 1.2 0 2.3-.2 3.4-.6 1.1-.4 2-.9 2.8-1.6v-6.4h-1.7v5.7c-1.2.9-2.7 1.3-4.4 1.3-1.4 0-2.6-.3-3.7-.9-1.1-.6-1.9-1.4-2.6-2.5-.6-1.1-.9-2.2-.9-3.5 0-1.3.3-2.5.9-3.6.6-1.1 1.5-1.9 2.6-2.5 1.1-.6 2.3-.9 3.7-.9 2 0 3.7.7 5.1 2l1.1-1.1c-.7-.8-1.6-1.4-2.7-1.8-1.1-.4-2.2-.6-3.5-.6-1.7 0-3.2.4-4.6 1.1-1.3.7-2.4 1.8-3.2 3.1-.8 1.3-1.2 2.8-1.2 4.4 0 1.6.4 3.1 1.2 4.4.8 1.1 1.9 2.1 3.2 2.9zm14.6-4.4h4.5c.5 0 .9 0 1.3-.1l3.8 5.4h1.9l-4.1-5.8c1.2-.4 2.2-1.1 2.8-2 .7-.9 1-2 1-3.3 0-1.8-.6-3.2-1.8-4.2-1.2-1-2.9-1.5-5-1.5h-6.3v16.8h1.8v-5.3zm0-9.9h4.5c1.7 0 2.9.4 3.8 1.1s1.3 1.8 1.3 3.1-.4 2.4-1.3 3.1c-.9.7-2.2 1.1-3.8 1.1h-4.5v-8.4zm72.1 13.7h-10.1v-6.2h8.7v-1.5h-8.7v-6h9.7v-1.5h-11.5v16.8h11.9v-1.6zm-59.7-2.5c.8 1.3 1.8 2.3 3.2 3.1 1.4.7 2.9 1.1 4.5 1.1s3.2-.4 4.5-1.1c1.3-.7 2.4-1.8 3.2-3.1.8-1.3 1.2-2.8 1.2-4.4 0-1.6-.4-3.1-1.2-4.4-.8-1.3-1.8-2.3-3.2-3.1-1.3-.7-2.8-1.1-4.5-1.1s-3.2.4-4.5 1.1c-1.4.7-2.4 1.8-3.2 3.1-.8 1.3-1.1 2.8-1.1 4.4-.1 1.7.3 3.1 1.1 4.4zm1.5-7.9c.6-1.1 1.5-1.9 2.5-2.5 1.1-.6 2.3-.9 3.6-.9s2.5.3 3.6.9c1.1.6 1.9 1.4 2.5 2.5.6 1.1.9 2.3.9 3.6 0 1.3-.3 2.5-.9 3.6-.6 1.1-1.4 1.9-2.5 2.5-1.1.6-2.3.9-3.6.9s-2.5-.3-3.6-.9c-1.1-.6-1.9-1.4-2.5-2.5-.6-1.1-.9-2.3-.9-3.6 0-1.4.3-2.5.9-3.6z"/><circle cx="549" cy="67.9" r="39.9" opacity=".5" filter="url(#a)"/><path d="M547.9 106.6c22 0 39.9-17.9 39.9-39.9s-17.9-39.9-39.9-39.9S508 44.7 508 66.7s17.8 39.9 39.9 39.9zM89.7 562h10v-3.7h-10v-9.7h10.7v-3.7H87.3v31.7h13.5v-3.7H89.7V562zm441.1 14.5h2.4v-31.7h-2.4v31.7zm9-14.5h10v-3.7h-10v-9.7h10.7v-3.7h-13.1v31.7h13.5v-3.7h-11.1V562zm-401 1.6c-.3-.5-.8-1-1.4-1.6 1.7-.4 3-1.4 3.8-2.9.8-1.5 1.2-3.4 1.2-5.7 0-1.7-.3-3.3-.8-4.8-.5-1.4-1.2-2.4-2-3-.8-.6-2.1-.9-3.7-.9h-8v31.7h2.4v-14.1h2.8c.6 0 1.1.1 1.3.2.4.2.7.4 1.1.8.4.4.8 1.1 1.2 2.1.5 1 1 2.5 1.7 4.4l2.4 6.6h3l-3.1-8.6c-.6-1.6-1.2-3-1.9-4.2zm-3.3-4.8h-5.1v-10.5h5.7c1.3 0 2.3.5 2.9 1.4.6 1 .9 2.2.9 3.7 0 1-.2 2-.5 2.8-.3.9-.8 1.5-1.4 1.9-.5.5-1.4.7-2.5.7zm354.7-12.2c-.6-.7-1.3-1.2-2.2-1.5-.6-.2-1.6-.3-2.8-.3h-6.8v31.7h2.4v-12.9h4.6c2.6 0 4.3-.9 5.3-2.8s1.5-4.2 1.5-6.9c0-1.6-.2-3-.5-4.3-.4-1.3-.9-2.3-1.5-3zm-1.4 11.7c-.6 1-1.7 1.5-3.3 1.5h-4.7v-11.3h4.6c1.1 0 1.8.1 2.2.3.6.3 1.1.9 1.5 1.9.4.9.6 2.1.6 3.4.1 1.8-.3 3.2-.9 4.2zM189.3 562h10v-3.7h-10v-9.7H200v-3.7h-13.1v31.7h13.5v-3.7h-11.1V562zm-16.8 0h10v-3.7h-10v-9.7h10.7v-3.7h-13.1v31.7h13.5v-3.7h-11.1V562zm-11.9 5.8c-.4 1.7-.7 3.5-1 5.2-.3-1.6-.6-3.3-.9-5.2l-4.7-23h-2.6l7 31.7h2.5l7.1-31.7h-2.4l-5 23zm-14 8.7h2.4v-31.7h-2.4v31.7zm358.2-39.7h-2.9l-1.6 6.1h1.8l2.7-6.1zm-325.2 0h-2.9l-1.6 6.1h1.8l2.7-6.1zM523 563.6c-.3-.5-.8-1-1.4-1.6 1.7-.4 3-1.4 3.8-2.9.8-1.5 1.2-3.4 1.2-5.7 0-1.7-.3-3.3-.8-4.8-.5-1.4-1.2-2.4-2-3-.8-.6-2.1-.9-3.7-.9h-8v31.7h2.4v-14.1h2.8c.6 0 1.1.1 1.3.2.4.2.7.4 1.1.8.4.4.8 1.1 1.2 2.1s1 2.5 1.7 4.4l2.4 6.6h3l-3.1-8.6c-.6-1.6-1.2-3-1.9-4.2zm-3.3-4.8h-5.1v-10.5h5.7c1.3 0 2.3.5 2.9 1.4.6 1 .9 2.2.9 3.7 0 1-.2 2-.5 2.8-.3.9-.8 1.5-1.4 1.9-.5.5-1.4.7-2.5.7zM20.9 562h10v-3.7h-10v-9.7h10.7v-3.7H18.5v31.7H32v-3.7H20.9V562zm564.4 5.9c-.6-1.7-1.3-3.1-2-4.2-.3-.5-.8-1-1.4-1.6 1.7-.4 3-1.4 3.8-2.9.8-1.5 1.2-3.4 1.2-5.7 0-1.7-.3-3.3-.8-4.8-.5-1.4-1.2-2.4-2-3-.8-.6-2.1-.9-3.7-.9h-8v31.7h2.4v-14.1h2.8c.6 0 1.1.1 1.3.2.4.2.7.4 1.1.8.4.4.8 1.1 1.2 2.1s1 2.5 1.7 4.4l2.4 6.6h3l-3-8.6zm-5.2-9.1H575v-10.5h5.7c1.3 0 2.3.5 2.9 1.4.6 1 .9 2.2.9 3.7 0 1-.2 2-.5 2.8-.3.9-.8 1.5-1.4 1.9-.6.5-1.4.7-2.5.7zm-14 4.3c0 4-.4 6.7-1.1 8.1-.7 1.4-2 2.1-3.8 2.1-1 0-1.9-.4-2.6-1.1-.7-.7-1.2-1.7-1.5-3-.3-1.3-.4-3.3-.4-6.1v-18.3h-2.4v18.3c0 3.4.2 6 .7 8 .5 1.9 1.2 3.4 2.3 4.4 1.1 1 2.5 1.5 4.2 1.5 1.7 0 3.2-.6 4.2-1.8s1.8-2.7 2.2-4.6.6-4.4.6-7.6v-18.3h-2.4v18.4zM66 546.3c-1.3-1.4-2.8-2.1-4.5-2.1-2.5 0-4.6 1.5-6.2 4.5-1.6 3-2.4 7.1-2.4 12.4 0 2.8.3 5.4 1 7.9s1.7 4.5 3 5.9c1.3 1.4 2.9 2.2 4.6 2.2 1.6 0 3-.7 4.4-2 1.4-1.3 2.4-3.2 3.1-5.8.7-2.5 1.1-5.4 1.1-8.6 0-3.2-.4-6-1.1-8.5-.7-2.5-1.7-4.5-3-5.9zm-.1 23.8c-1.2 2.2-2.6 3.3-4.4 3.3-1.8 0-3.2-1.1-4.4-3.3-1.2-2.2-1.8-5.2-1.8-9 0-4.8.6-8.2 1.8-10.2 1.2-2 2.7-3.1 4.4-3.1 1.2 0 2.3.5 3.2 1.6 1 1.1 1.7 2.6 2.2 4.5.5 1.9.7 4.2.7 6.8 0 4-.6 7.2-1.7 9.4zm9.6-25.3h-2.4v31.7h11.3v-3.7h-8.9v-28zm-29.2 26.6c-.9 1.4-2.1 2-3.4 2-1.1 0-2.1-.5-3.1-1.5-.9-1-1.6-2.5-2.1-4.5-.4-2-.7-4.4-.7-7.1 0-2.1.2-4.1.6-6.1.4-2 1-3.5 2-4.7.9-1.2 2.1-1.8 3.5-1.8 1.2 0 2.2.5 3 1.6.8 1.1 1.4 2.7 1.8 5l2.4-1c-.5-2.9-1.3-5.2-2.6-6.8-1.2-1.6-2.8-2.4-4.6-2.4-1.6 0-3.1.6-4.4 1.9-1.3 1.3-2.4 3.1-3.1 5.6-.7 2.5-1.1 5.3-1.1 8.6 0 3 .3 5.9 1 8.5.6 2.6 1.6 4.7 2.8 6 1.2 1.4 2.8 2.1 4.8 2.1 1.9 0 3.5-.9 4.8-2.7 1.3-1.8 2.2-4.4 2.7-7.9l-2.4-1.1c-.4 2.9-1 5-1.9 6.3zm76.6-24.8c-.6-.7-1.3-1.2-2.2-1.5-.6-.2-1.5-.3-2.8-.3h-6.8v31.7h2.4v-12.9h4.6c2.6 0 4.3-.9 5.3-2.8s1.5-4.2 1.5-6.9c0-1.6-.2-3-.5-4.3-.4-1.3-.9-2.3-1.5-3zm-1.5 11.7c-.6 1-1.7 1.5-3.3 1.5h-4.7v-11.3h4.6c1.1 0 1.8.1 2.2.3.6.3 1.1.9 1.5 1.9.4.9.6 2.1.6 3.4.1 1.8-.2 3.2-.9 4.2zm267.3 3.7h10v-3.7h-10v-9.7h10.7v-3.7h-13.1v31.7h13.5v-3.7h-11.1V562zm26.3 7.7l-9.5-24.9H403v31.7h2.3v-24.9l9.5 24.9h2.5v-31.7H415v24.9zm-40.2-2.9c-.4 2.2-.8 3.9-1 5.1-.2-1-.5-2.6-.9-4.7l-4.3-22.5H365v31.7h2.3v-27l5.2 27h2.2l5.3-26.6v26.6h2.3v-31.7h-3.2l-4.3 22.1zm45.2-18.3h6v28h2.4v-28h6v-3.7H420v3.7zm52 14.6c0 4-.4 6.7-1.1 8.1-.7 1.4-2 2.1-3.8 2.1-1 0-1.9-.4-2.6-1.1-.7-.7-1.2-1.7-1.5-3-.3-1.3-.4-3.3-.4-6.1v-18.3h-2.4v18.3c0 3.4.2 6 .7 8 .5 1.9 1.2 3.4 2.3 4.4 1.1 1 2.5 1.5 4.2 1.5 1.7 0 3.2-.6 4.2-1.8 1.1-1.2 1.8-2.7 2.2-4.6s.6-4.4.6-7.6v-18.3H472v18.4zm25.7-1.1h10v-3.7h-10v-9.7h10.7v-3.7h-13.1v31.7h13.5v-3.7h-11.1V562zm-146.9 0h10v-3.7h-10v-9.7h10.7v-3.7h-13.1v31.7h13.5v-3.7h-11.1V562zm103-2.2c-.7-.6-2.1-1.3-4-2-1.9-.8-3.1-1.5-3.6-2.3-.5-.7-.7-1.7-.7-2.8 0-1.3.3-2.4 1-3.4.7-.9 1.7-1.4 3.2-1.4 1.4 0 2.4.5 3.2 1.5.7 1 1.1 2.5 1.3 4.5l2.3-.3c0-1.9-.3-3.5-.9-5-.6-1.5-1.3-2.6-2.4-3.3-1-.8-2.2-1.1-3.5-1.1-1.2 0-2.3.4-3.3 1.1-1 .7-1.8 1.8-2.3 3.2-.5 1.4-.8 2.9-.8 4.5 0 1.5.2 2.8.6 4s1.1 2.2 1.9 3c.7.6 1.8 1.3 3.5 2s2.7 1.2 3.2 1.5c.8.5 1.3 1.1 1.6 1.9.3.7.5 1.6.5 2.6s-.2 1.9-.5 2.7c-.3.8-.9 1.5-1.6 2-.7.5-1.5.7-2.4.7-1 0-2-.3-2.8-.9-.8-.6-1.4-1.4-1.8-2.5-.4-1-.6-2.3-.7-3.9l-2.3.3c0 2.1.4 4 1 5.7.6 1.7 1.5 2.9 2.6 3.8 1.1.8 2.5 1.3 4.1 1.3 1.3 0 2.5-.4 3.5-1.2 1-.8 1.8-2 2.4-3.5.6-1.5.8-3.1.8-4.8 0-1.7-.3-3.2-.8-4.5-.4-1.5-1.2-2.6-2.3-3.4zM289 562h10v-3.7h-10v-9.7h10.7v-3.7h-13.1v31.7h13.5v-3.7H289V562zm-8.8-2.2c-.7-.6-2.1-1.3-4-2-1.9-.8-3.1-1.5-3.6-2.3-.5-.7-.7-1.7-.7-2.8 0-1.3.3-2.4 1-3.4.7-.9 1.7-1.4 3.2-1.4 1.4 0 2.4.5 3.2 1.5.7 1 1.1 2.5 1.3 4.5l2.3-.3c0-1.9-.3-3.5-.9-5-.6-1.5-1.3-2.6-2.4-3.3-1-.8-2.2-1.1-3.5-1.1-1.2 0-2.3.4-3.3 1.1-1 .7-1.8 1.8-2.3 3.2-.5 1.4-.8 2.9-.8 4.5 0 1.5.2 2.8.6 4 .4 1.2 1.1 2.2 1.9 3 .7.6 1.8 1.3 3.5 2s2.7 1.2 3.2 1.5c.8.5 1.3 1.1 1.6 1.9.3.7.5 1.6.5 2.6s-.2 1.9-.5 2.7c-.3.8-.9 1.5-1.6 2-.7.5-1.5.7-2.4.7-1 0-2-.3-2.8-.9-.8-.6-1.4-1.4-1.8-2.5-.4-1-.6-2.3-.7-3.9l-2.3.3c0 2.1.4 4 1 5.7.6 1.7 1.5 2.9 2.6 3.8 1.1.8 2.5 1.3 4.1 1.3 1.3 0 2.5-.4 3.5-1.2 1-.8 1.8-2 2.4-3.5s.8-3.1.8-4.8c0-1.7-.3-3.2-.8-4.5-.4-1.5-1.2-2.6-2.3-3.4zm61.8 9.9l-9.5-24.9H330v31.7h2.3v-24.9l9.5 24.9h2.5v-31.7H342v24.9zM237.1 562h10v-3.7h-10v-9.7h10.7v-3.7h-13.1v31.7h13.5v-3.7h-11.1V562zm-8.5-13h1.2c0 1.2-.1 2.1-.4 2.8-.2.7-.5 1.2-1 1.5l.5 1.5c.7-.6 1.3-1.5 1.7-2.6.3-.9.4-2.2.4-4.2v-3.6h-2.4v4.6zm34.8 20.7l-9.5-24.9h-2.5v31.7h2.3v-24.9l9.5 24.9h2.5v-31.7h-2.3v24.9zm55.5-5.6h5.3v5.9c-.5.8-1.3 1.5-2.2 2.2-1 .7-2 1-3 1-1.2 0-2.3-.5-3.4-1.4-1.1-.9-1.9-2.3-2.4-4.2-.6-1.9-.8-4.3-.8-7.1 0-2.3.2-4.4.7-6.4.3-1.1.7-2.2 1.1-3.1.5-1 1.1-1.7 1.9-2.3.8-.6 1.7-.9 2.8-.9.9 0 1.7.3 2.5.8.7.6 1.3 1.3 1.7 2.2.4.9.7 2.2 1 3.8l2.2-1c-.3-2.1-.8-3.9-1.4-5.2-.6-1.3-1.4-2.4-2.5-3.1-1.1-.7-2.2-1.1-3.5-1.1-1.8 0-3.4.6-4.8 1.9-1.4 1.3-2.4 3.3-3.2 6-.7 2.7-1.1 5.6-1.1 8.6 0 3.1.4 5.9 1.1 8.5s1.8 4.5 3.3 5.8c1.5 1.3 3.1 2 4.8 2 1.3 0 2.6-.4 3.8-1.2 1.3-.8 2.5-2.1 3.6-3.7v-11.8h-7.7v3.8zm-15.1 12.4h2.4v-31.7h-2.4v31.7zm-80.9-29c-.7-1.1-1.6-1.9-2.7-2.3-.7-.3-1.8-.5-3.2-.5h-6.2v31.7h6.5c1.1 0 2.1-.2 2.9-.5.8-.4 1.6-.9 2.2-1.6.6-.7 1.1-1.7 1.6-2.9s.9-2.8 1.2-4.6.5-4 .5-6.4c0-2.8-.2-5.3-.7-7.5s-1.2-4-2.1-5.4zm-.1 19c-.3 1.7-.8 3-1.3 4-.4.7-.9 1.3-1.6 1.6-.7.4-1.6.6-2.8.6h-3.9v-24.2h3.8c1.4 0 2.5.2 3.1.6.9.6 1.6 1.8 2.3 3.6.6 1.8.9 4.3.9 7.7 0 2.4-.2 4.4-.5 6.1z" fill="#fff"/><linearGradient id="b" gradientUnits="userSpaceOnUse" x1="133.332" y1="218.715" x2="256.731" y2="218.715"><stop offset="0" stop-color="#8d8b8b"/><stop offset="1" stop-color="#e8e7e7"/></linearGradient><path d="M219.5 213.4s5.5-1.2 10.9-6.8c1.6-1.7 3.3-3.8 4.8-6.4 3.6-6.3 6.2-15.4 5.9-28.7-1.1-37-40.6-40.4-52.1-40.4h-55.6v175.2h62.5c10.4 0 60.9-.6 60.9-48.6-.1-38.3-28-42-37.3-44.3zm-46.1-51.3h2.6c5.5 0 9.9.1 12.9.2 3.1.1 5.6.8 7.7 2.1 2.3 1.4 3.9 3.6 4.8 6.5.9 2.9 1.4 5.8 1.4 8.7 0 3.8-.4 7.1-1.2 9.9-.8 2.9-2.5 5.2-5 7-1.8 1.3-4.3 2.1-7.4 2.4-3.1.2-6.9.4-11.4.4h-4.4v-37.2zm39.5 102.8c-1.3 3.1-3.6 5.5-6.9 7.4-3.3 1.9-6.9 2.8-10.8 2.9-3.9.1-10.4.1-19.4.1h-2.3V234h7c4.8 0 9.4 0 13.8.1s7.9.6 10.4 1.6c3.7 1.4 6.3 3.5 7.8 6.4 1.5 2.9 2.3 6.9 2.3 12.2 0 4-.7 7.6-1.9 10.6z" fill="url(#b)"/><path d="M252.8 468.3h-7.1v35.2h7.1c4.6 0 6.8-3.1 6.8-8.9v-17.5c.1-5.7-2.2-8.8-6.8-8.8zm2.6 26.9c0 2.4-.7 4.5-2.7 4.5H250v-27.4h2.7c2 0 2.7 2.1 2.7 4.2v18.7zm8.9 8.3h4.2v-35.2h-4.2v35.2zm15-35.7c-4.8 0-6.8 4.1-6.8 8.1v2.1c0 4 2.2 6.2 5.4 8.9 2.3 1.9 3.9 4.1 3.9 7.1v2.1c0 2.3-.8 4.1-2.5 4.1-2.1 0-2.4-2.3-2.4-4.6v-1.8h-4.3v1.3c0 5.5 2.1 8.9 6.8 8.9 4.7 0 6.7-4.2 6.7-8.1V493c0-4.9-3-7.6-6.1-10.3-2.3-1.9-3.1-3.5-3.1-5.6v-1.5c0-2.3.7-4.1 2.4-4.1 2 0 2.5 2.3 2.5 4.6v1.8h4.2v-1.5c0-6.1-2.5-8.6-6.7-8.6zm8.7 4.5h5.3v31.2h4.2v-31.2h5.5v-4h-15v4zm18.3 31.2h4.2v-35.2h-4.2v35.2zm20.4-8.1h-.2l-6.5-27.1h-4.5v35.2h3.5v-26.3h.2l6.5 26.3h4.5v-35.2h-3.4v27.1zm14.9-27.6c-4.6 0-6.9 3.1-6.9 8.8v18.7c0 5.7 2.3 8.8 7 8.8 4.6 0 7-3.1 7-8.8v-11.9h-6.8v3.9h2.5v8.4c0 2.3-.7 4.5-2.8 4.5-2 0-2.7-2.3-2.7-4.5v-19.5c0-2.4.7-4.6 2.8-4.6 2 0 2.8 2.2 2.8 4.6v1.8h4.2v-.7c0-6.6-2.4-9.5-7.1-9.5zm20.8 27.9c0 2.1-.6 4.5-2.6 4.5-2.1 0-2.6-2.3-2.6-4.5v-27.4H353v27c0 5.7 2.2 8.7 6.9 8.7 4.6 0 6.8-3 6.8-8.7v-27h-4.2v27.4h-.1zm9 7.8h11.9v-3.9h-7.6v-13.1h6.3v-3.9h-6.3v-10.4h7.6v-4h-11.9v35.3zm14.4-31.2h9l-9.2 26.6v4.7h12.9v-3.9h-8.9l9.1-26.7v-4.7h-12.9v4zm43.5 24.3h-.2l-3.4-28.4h-4.2l5.1 35.2h5.4l5.1-35.2h-4.2l-3.6 28.4zm17.6-28.8c-4.7 0-6.8 3.1-6.8 8.8v18.7c0 5.7 2.2 8.8 6.8 8.8s6.9-3.1 6.9-8.8v-18.7c-.1-5.8-2.3-8.8-6.9-8.8zm2.6 27.8c0 2.2-.6 4.5-2.7 4.5-2 0-2.5-2.3-2.5-4.5v-19.5c0-2.2.5-4.6 2.5-4.6 2.1 0 2.7 2.4 2.7 4.6v19.5zm18 .1c0 2.1-.6 4.5-2.6 4.5-2.1 0-2.6-2.3-2.6-4.5v-27.4h-4.2v27c0 5.7 2.2 8.7 6.9 8.7 4.6 0 6.8-3 6.8-8.7v-27h-4.2v27.4zm21.6-17.7v-1.5c0-6.2-2.5-8.7-6.7-8.7-4.8 0-6.8 4.1-6.8 8.1v2.1c0 4 2.2 6.2 5.4 8.9 2.3 1.9 3.9 4.1 3.9 7.1v2.1c0 2.3-.8 4.1-2.5 4.1-2.1 0-2.4-2.3-2.4-4.6v-1.8h-4.3v1.3c0 5.5 2.1 8.9 6.8 8.9 4.7 0 6.7-4.2 6.7-8.1V493c0-4.9-3-7.6-6.1-10.3-2.3-1.9-3.1-3.5-3.1-5.6v-1.5c0-2.3.7-4.1 2.4-4.1 2 0 2.5 2.3 2.5 4.6v1.8l4.2.1z" fill="#b2b0b0"/><path d="M579.7 29.9c-.9-.2-1.6.2-1.9 1.3-.5 1.7-.9 3.5-1.4 5.2 0 .7-.3 1.3-.5 2-.4 1.4-.7 2.9-1.1 4.3-1 4-2.1 7.9-3.1 11.9-.3 1 .1 1.8.9 2 .9.2 1.7-.2 1.9-1.3 1.3-4.8 2.5-9.6 3.8-14.3.2-.6.3-1.2.5-1.8.6-2.4 1.2-4.8 1.8-7.1.3-1.2 0-2-.9-2.2zm-6.4 7.5c0-.9-.5-1.5-1.3-1.6-.8-.1-1.4.4-1.7 1.2-1.4 5.4-2.8 10.8-4.2 16.1-.3 1 .1 1.8 1 2 .9.2 1.6-.2 1.9-1.3 1.3-5.1 2.6-10.1 3.9-15.2.2-.4.3-.9.4-1.2zm-7.2 1c-.9-.2-1.6.3-1.9 1.3-.9 3.3-1.7 6.6-2.6 9.8-.2.9-.5 1.9-.7 2.6 0 1 .5 1.6 1.3 1.7.9.1 1.4-.3 1.7-1.3 1.1-4 2.1-8.1 3.1-12.1.4-1 0-1.8-.9-2zm-6.3 3.5c-.8-.2-1.5.2-1.8 1.1-.7 2.5-1.3 5.1-2 7.6-.2.9.2 1.7 1 1.9.9.3 1.6-.2 1.9-1.1.5-1.8.9-3.6 1.4-5.3.2-.9.4-1.7.6-2.4.1-1.1-.4-1.7-1.1-1.8z" fill="#1371b7"/><path d="M547.3 52.7c-.2 0-.3.2-.3.4v1.1c-.6-.5-.6-1.4-1.6-1.6v2.7c0 .2.1.3.3.3.2 0 .2-.2.3-.3 0-.3-.1-.7.1-1 .6.4.5 1.3 1.5 1.3V53c0-.2 0-.4-.3-.3zm5.6.9c.1-.5-.2-.9-.7-.9-.4 0-1.2-.4-1.3.4-.1.7 0 1.5 0 2.3 0 .2.1.3.3.3.2 0 .3-.1.3-.3.1-.3-.1-.6.2-.8.5.2.3 1.1 1.4 1.1-.7-.8-.4-1.5-.2-2.1zm-1.1.3c-.3 0-.3-.1-.3-.3 0-.2 0-.4.3-.4.2 0 .4 0 .5.3-.1.3-.2.4-.5.4zm-23.4-1.2c-.3 0-.7-.1-1.1.1-.2.6-.1 1.2-.1 1.8 0 .3-.3 1 .3 1 .5 0 .2-.6.4-.9l.1-.1c.6.1.3 1.2 1.2 1v-.4c-.2-.5-.4-.8 0-1.4.3-.5-.1-1.1-.8-1.1zm-.1 1.2c-.4 0-.5-.1-.5-.3 0-.2 0-.4.3-.4.2 0 .4 0 .5.3 0 .3-.2.4-.3.4zm3.5-.2c0-.7-.3-1.1-1.1-1.1-.7 0-1 .4-1.1 1v1.1c.1.8.9 1.1 1.6.7.5-.3.6-.8.5-1.4.1 0 .1-.1.1-.3zm-.6.4v.6c0 .3-.2.4-.4.4s-.4-.1-.4-.4v-.9c0-.3.1-.6.4-.6.4 0 .5.3.4.6v.3zm11-1.1c-.2-.4-.5-.5-.8 0-.4.8-.7 1.7-.8 2.6.3.1.5.1.6 0 .4-.6.8-.7 1.2 0 .1.2.3.2.4.1.2-.1.2-.3.1-.4-.2-.9-.4-1.6-.7-2.3zm7.5-.3c-.5-.2-1-.1-1.3.3-.3.4-.4 1.8 0 2.3.3.4.7.5 1.2.4.7-.2.7-.9.8-1.5-.1-.6 0-1.2-.7-1.5zm-.3 2.4c-.2.1-.5 0-.5-.2-.2-.5-.2-1.1 0-1.6.1-.2.3-.2.5-.1.4.2.3.6.3.9 0 .4.1.8-.3 1zm-15.3-2.4c-.2 0-.3.2-.3.4v1.2c0 .3.1.9-.5.8-.6 0-.4-.5-.4-.9V53c0-.2-.1-.3-.3-.3-.2 0-.3.1-.3.3 0 .7-.1 1.4.1 2.1.1.4.4.6.8.6 1 .1 1.3-.3 1.3-1.7v-.9c-.1-.2-.1-.4-.4-.4zm4.5 2.4c-.4 0-.8 0-.5-.6.4-.2 1 .2 1-.4 0-.6-.7-.1-1-.4-.2-.9 1.3 0 1.1-1-1.7-.3-1.8-.3-1.8 1.4v.3c0 1.3 0 1.3 1.3 1.2.2 0 .6.1.6-.3 0-.3-.4-.2-.7-.2zM526.5 54c-.3-.1-.7-.2-.9.2 0 .4.4.3.5.7-.2.3-.4.4-.7.1-.3-.4-.2-1-.1-1.5.1-.3.3-.4.6-.3.2.1.5.2.6-.1 0-.3-.2-.4-.5-.4-.4-.1-.8 0-1.1.4-.4.6-.3 1.4-.1 2 .1.4.5.6.9.6.2 0 .3 0 .5-.1.4-.2.6-.6.6-1-.1-.2 0-.5-.3-.6zm8.7-1.3c-.4.1-.2.5-.2.8 0 .3-.1.7 0 1.1.1.3-.3 1 .3 1s.1-.6.4-1c.4-.1 1 0 1.2-.6.2-.4.2-.8-.2-1.1-.4-.4-1-.3-1.5-.2zm1.1 1c-.1.3-.4.3-.7.2 0-.3-.1-.5 0-.7.2-.1.4 0 .5 0 .2.2.3.4.2.5zm7 .5v.5c.1.3-.2.9.3.9s.2-.6.3-.9c0 0 0-.1.1-.2.3-.2.9.1.9-.3 0-.6-.6-.2-.9-.5-.2-.9 1.3 0 1.1-1-1.8-.2-1.8-.2-1.8 1.5z" fill="#642870"/><path d="M569.7 77.7c-2.6.6-4.9 1.9-7 3.4-.5.4-.7 1-.6 1.6.2.7.8.7 1.4.8h.4c-.3.6-.7 1-1.1 1.4-5.6 6.3-12.5 8.6-20.7 7.3-6.5-1.1-11.9-4.1-16.3-9-5.4-6.1-7.9-13.1-6.7-21.2.9-5.9 3.8-10.8 8.3-14.7 4.5-3.9 9.8-6.2 15.8-6.8 3.9-.4 7.7-.2 11.4 1.2.4.1.7.2 1 0 .7-.4 1-1.1 1-1.8 0-.8-.4-1.4-1.2-1.6-4-1.2-8.1-1.6-12.2-1.2-5.9.6-11.1 2.8-15.5 6.7-8.1 7.2-11.5 16.2-9.6 26.9 1.8 10.3 7.8 17.5 17.4 21.7 5.9 2.6 12.1 2.7 18.4 1.5 5.4-1.1 10-3.6 13.6-7.7.1-.1.2-.3.4-.3l.3.6c.3.5.6.9 1.2.9s1-.5 1.3-.9c.2-.2.2-.6.3-.8.2-1 .2-1.9.2-2.9 0-1.5.1-2.9-.4-4.4-.3-.6-.5-.8-1.1-.7zM555 72.1c-.1-1.1-.8-1.9-2-2-1.5-.1-2.3.4-2.6 1.7-.2.9-.2 1.8-.1 2.7.2 1.6 1.4 2.4 3 2.1.4-.1.6-.1.9.2.2.2.6.3.9 0 .3-.3.2-.6 0-.9-.2-.2-.4-.4-.3-.7.2-.6.1-1.2.1-1.7.1-.6.1-1 .1-1.4zm-1.5 2.2c-.4.2-1 .4-.7 1.1-.7 0-1-.4-1-.9v-2.1c0-.6.3-.9.9-.9.6 0 .8.4.8 1v1.8zm2.6-3.6c0 1.4-.1 2.9.1 4.3.1 1.1 1.1 1.7 2.6 1.6 1.1-.1 1.9-.9 2-1.9v-2V71c0-.5-.1-1-.7-1-.7 0-.8.4-.8 1v3.3c0 .7-.4 1-1 .9-.7-.1-.7-.6-.7-1.1v-3.4c0-.5-.2-.7-.7-.7-.5.1-.8.3-.8.7zm5.7 5.9c.7.2.8-.4 1-.9 0-.1 0-.2.1-.4h1.2c.4 0 .7.1.7.6s.4.9.9.7c.6-.1.6-.6.5-1.1-.4-1.5-.8-3.1-1.4-4.6-.2-.5-.4-.9-1-.9s-.8.4-1 .8c-.6 1.4-1 2.9-1.4 4.5-.1.6-.2 1.1.4 1.3zm1.9-4.1c.3.5.4 1 .5 1.5h-1c.1-.5.3-1 .5-1.5zm19.5 2.7h-1.8c-.1-.4-.1-.8 0-1.1h1.4c.5 0 .8-.2.8-.7 0-.4-.3-.6-.8-.6h-1.4c-.2-.4-.2-.7-.1-1.1h1.6c.5 0 .9-.1.9-.7s-.4-.7-.8-.8h-2.3c-.6 0-.8.3-.8.9v4.8c0 .5.2.8.7.8h2.5c.5 0 .8-.2.8-.7.1-.6-.2-.8-.7-.8zm-4.8-5h-3.7c-.4 0-.8.3-.8.8s.4.7.8.7h1v4.2c0 .5.2.8.7.8.5 0 .7-.3.8-.8.1-.5 0-.9 0-1.4v-2.9h1c.5 0 .8-.2.8-.7.1-.5-.2-.7-.6-.7zm-10.7 6.4h2.6c.4 0 .7-.2.7-.7 0-.5-.3-.7-.7-.7h-1.9V71c0-.5-.2-.8-.7-.8-.5 0-.7.3-.7.8v5c0 .3.2.6.7.6zm4.8-6.5c-.5 0-.7.3-.7.8v4.8c0 .5.1.9.7.9.5 0 .8-.3.8-.8v-4.9c0-.5-.3-.8-.8-.8zm9.2-.5c.3.1 1-.8 1-1.3 0-.4-.2-.5-.5-.6-.3-.1-.9.8-1 1.3 0 .4.2.6.5.6z" fill="#01a0e3"/><path d="M544.2 63.3v-1.8c-.1-2.1-1.4-3.3-3.4-3.3-2.3-.1-3.6.9-3.8 3.1-.2 1.4-.2 2.9 0 4.3.3 1.8 1.4 2.7 3.4 2.8 1.9.1 3.2-.8 3.7-2.6.2-.8.1-1.6.1-2.5zm-2.3 1.9c-.1.8-.5 1.1-1.3 1.2-.8 0-1.3-.3-1.4-1.1-.1-1.3-.2-2.7 0-4 .1-.7.7-1.1 1.4-1.1.7.1 1.2.4 1.3 1.2v1.9c0 .6.1 1.3 0 1.9zm29.8-1.8v-2c-.1-1.8-1.3-3.1-3-3.2-1.9-.1-3.3 1-3.5 2.8-.2 1.5-.2 3 0 4.5.2 1.9 1.6 2.9 3.6 2.8 1.6-.1 2.8-1.4 2.9-3.1v-1.8zm-2.3 1.9c-.1.6-.4 1.1-1.1 1.1-.7 0-1-.5-1.1-1.2v-1.9-1.9c0-.7.4-1.2 1.1-1.2.7 0 1 .5 1.1 1.1.1 1.3.1 2.7 0 4zm-12-2v2.1c.1 1.7 1.4 2.9 3 3 2 .1 3.3-.9 3.5-2.7.2-1.6.2-3.1 0-4.7-.2-1.8-1.6-2.8-3.5-2.8-1.7.1-3 1.4-3 3.1v2zm2.3-2.1c.1-.6.4-1 1.1-1 .7 0 1.1.4 1.1 1.1v3.9c0 .7-.3 1.2-1.1 1.2-.7 0-1-.4-1.1-1.1-.2-1.4-.2-2.7 0-4.1zm-26.6 1.2c-.4-.1-.9-.2-1.3-.3-.5-.1-1-.3-1-1 .1-.7.6-.7 1.1-.8.6-.1 1.2.1 1.8.3.6.1 1.1 0 1.2-.6.2-.6.1-1.1-.6-1.3-1.4-.4-2.8-.6-4.1 0-1.2.5-1.8 1.7-1.7 3.1.1 1.2.7 1.9 2 2.3.6.2 1.2.3 1.7.5s1.1.3 1 1c-.1.7-.6.8-1.2.9-.7.1-1.4-.1-2.1-.3-.9-.2-1.3 0-1.5.7-.2.7.2 1.2 1 1.4.7.2 1.3.3 2 .2h1.1c1.7-.2 2.8-1.3 2.9-3 .2-1.7-.5-2.6-2.3-3.1zm18.9 4.1c-.5.5-.6 1.1-.1 1.6.4.5 1.2.4 1.7-.1 1.2-1.3 2.2-2.8 2.7-4.5.3-1.2.3-2.4-.2-3.5-.7-1.5-2.1-2.1-3.7-1.7-1.6.4-2.6 1.7-2.5 3.4.1 1.6 1 2.6 2.7 2.9.2 0 .5.1.8.1-.1.2-.2.4-.3.5-.4.4-.8.8-1.1 1.3zm1.2-3.9c-.8 0-1.2-.4-1.2-1.2 0-.7.4-1.2 1-1.2s1 .7 1.1 1.6c.1.7-.4.8-.9.8zm25.4 3.6c-.3 0-.6.1-.9-.2v-6.5c0-1.2-.9-1.6-1.9-1l-2.7 1.8c-.5.4-.7 1.1-.4 1.6.4.5.9.6 1.4.3.4-.2.8-.5 1.3-.8v3.3c0 1.6 0 1.6-1.6 1.7h-.3c-.6.1-.9.5-.9 1.1 0 .6.4 1 1 1h4.8c.6 0 1-.3 1-.9.2-1-.2-1.3-.8-1.4zm-52.8-8c-.7 0-1.1.5-1.1 1.4V67c0 1 .3 1.4 1.1 1.4s1.1-.4 1.1-1.3v-3.7-3.7c0-1-.4-1.5-1.1-1.5zm32.2 37c-.4-.8-1.4-1-2.2-.5-.7.5-.8 1.1-.5 1.9.4 1 .4 2.2 1.7 2.4 1.1 0 1.8-.8 1.7-1.7-.2-.8-.4-1.5-.7-2.1zm-.7 2.8c-.2.1-.4 0-.5-.3l-.6-1.8c-.1-.3.1-.5.4-.5.3-.1.5.1.5.3.2.6.4 1.2.6 1.7 0 .3-.1.5-.4.6zm-2.7.7c-.3.1-.6.1-1.1.2.2-.5.5-.8.8-1.2.6-.8.6-1.7 0-2.2-.6-.5-1.7-.3-2.3.3-.2.2-.3.4-.1.7.2.3.5.2.7.1.1-.1.3-.2.4-.3.2-.1.4-.2.6 0 .2.2.2.4.1.7-.2.2-.3.5-.5.7-.4.4-.7.9-.7 1.5 0 .5.2.9.8.7.5-.1 1.1-.2 1.6-.3.3-.1.6-.2.5-.6-.2-.4-.5-.4-.8-.3zm8.1-5.3c-.1-.2-.2-.3-.3-.5.2-.2.4-.3.7-.5.3-.2.4-.5.2-.8-.2-.3-.5-.2-.7-.1-1.4.7-1.5 1-.7 2.3.1.1.1.2.2.3.5.7.6.7 1.1 0 .1-.2.3-.4.5-.3.3.1.4.3.5.6 0 .3-.2.4-.4.5-.1 0-.3 0-.4.1-.3.1-.5.2-.4.5.1.3.3.4.6.5.8 0 1.6-.8 1.6-1.6-.1-1.2-1.2-1.7-2.5-1zm-29.1.5c-.3-.3-.6-.1-.8.2-.5.5-1 1-1.7 1.6.2-.9.3-1.6.4-2.4.1-.3 0-.6-.4-.7-.4-.1-.5.2-.6.5l-.6 3.3c-.1.3 0 .7.3.8.4.2.6 0 .9-.2l2.3-2.3c.3-.2.5-.5.2-.8zm28.2 2.2c-.1 0-.3.2-.5 0-.2-.5-.5-1.1-.8-1.6-.3-.4-.2-1.2-.9-1.2-.7-.1-.7.7-1 1.1-.2.3-.6.7-.2 1 .5.4.7-.1 1-.4h.2c.3.6.5 1.1.8 1.8-.2.1-.4.2-.5.3-.3.1-.5.4-.3.7.2.3.4.3.7.2.6-.3 1.2-.5 1.8-.8.2-.1.4-.3.3-.6-.1-.4-.3-.6-.6-.5zm-13.7 1.4c-.3.1-.6.2-1 .1s-.8.1-.5.6c.3.5.2.9.3 1.4.1.5-.2 1.2.6 1.2s.4-.8.4-1.2v-.5c0-.3-.1-.7.4-.7.4 0 .4.3.4.6 0 .4 0 .8.1 1.1 0 .3.2.6.6.6.3 0 .4-.3.4-.6 0-.6 0-1.2-.1-1.8-.3-.8-.9-1.1-1.6-.8zm-3.5-.1c-.9 0-1.4.6-1.4 1.7s.4 1.7 1.4 1.6c.9 0 1.4-.6 1.4-1.7s-.5-1.6-1.4-1.6zm0 2.4c-.5 0-.3-.5-.4-.8 0-.3-.1-.8.4-.7.5 0 .4.5.4.8 0 .3.1.7-.4.7zm-9.9-4.1c-.5-.3-1.1-.4-1.6.1s-.9 1.7-.6 2.2c.3.7 1 .8 1.7.8.2 0 .4-.1.4-.4 0-.3-.2-.4-.4-.4-.4 0-.8 0-.8-.6.4-.1.6.1.8.2.3.1.6.4.9-.1.5-.7.3-1.5-.4-1.8zm-.3 1.1c-.3.1-.4 0-.6-.2 0-.3.2-.3.4-.3s.4.2.2.5zm6.3.4c-.4-.2-.8-.3-1.2-.2-.5.1-.8.3-.9.8-.1.5.1.8.6 1 .2.1.5.2.7.5-.4.2-.7 0-.9-.1-.3-.1-.5-.1-.6.2-.1.3 0 .5.3.6.4.2.8.3 1.2.2.5-.1.9-.2 1-.8.1-.6-.1-.9-.6-1.2-.2-.1-.5-.1-.6-.4.3-.2.5 0 .7 0 .3.1.5.1.6-.2.1-.1-.1-.3-.3-.4zm-2.2-.1c.1-.3-.1-.4-.3-.5-.5-.2-1.2.1-1.6-.4-.3 0-.5.1-.5.3.2.9-.2 1.6-.3 2.4 0 .3.1.5.4.6.3.1.5 0 .6-.3l.3-.9c.1-.6.2-1 1-.7.2 0 .3-.2.4-.5zm3.6.3c-.4 0-.5.2-.5.6 0 .5-.1 1-.2 1.4v.4c-.1.4 0 .8.4.8.5.1.6-.3.6-.7.1-.6.1-1.2.2-1.9 0-.3-.1-.6-.5-.6zm.2-1.4c-.3 0-.6.2-.6.5 0 .4.2.5.6.5.3 0 .5-.2.5-.5-.1-.3-.2-.5-.5-.5z" fill="#717070"/><path d="M337.7 43.4c-3.3-.1-10.7 0-10.7 0v31.7h10.3c1 0 2-.1 2.9-.3 2.7-.5 5.1-1.6 7.3-3.4-.6-.9-1.2-1.8-1.6-2.8h-.2c-.1.1-.2.2-.4.2-1.8 1.5-3.9 2.4-6.2 2.7-1.6.2-3.3.1-4.9.2h-3.7v-25h6.3c1.2 0 2.4.1 3.6.4 4.5 1.2 7.5 4 8.6 8.6.3.6.4 1.3.4 2 .1 1.7 0 3.4-.3 5.2-.4 1.9.1 3.7 1.2 5.3.3-.2.5-.5.6-.9 2.9-5.6 2.9-11.3-.4-16.7-2.8-4.7-7.3-7-12.8-7.2zm46.8-20.5h-73.8v73.8h10.6V94h-7.7V25.6h68.2v68.3h-5.2v2.7h7c.4 0 .7 0 1.1-.1V23.6c-.1-.2 0-.5-.2-.7zm-26.7 66.4c.1.2.3.4.6.3-1.8-2.9-6.2-5.6-11.3-5.2-5.2.4-9.1 4.1-10.2 6.9.4.1.6-.1.7-.4 2.2-3.5 5.4-5.4 9.5-5.8 2.8-.3 5.5.4 7.9 1.9 1 .6 2 1.4 2.8 2.3zm-9.7 16.1c-.4-.7-.7-1.4-1.2-2.1-.8.5-1.6.9-2.3 1.4 1.4.8 2.6 1.8 3.5 3.1 1.3-2 2.6-3.8 4.7-5-.2-1-.2-2.1-.2-3.2-2.2 1.4-3.5 3.4-4.5 5.8zm12-3.8c-.8 2.1-2.1 4-3.9 5.4-2.9 2.3-6.3 3.2-10 2.7-3.2-.5-5.8-2-7.8-4.4-1-1.3-1.7-2.7-2.2-4.3-.1-.2 0-.4-.3-.4.9 4.6 5.9 9.8 12.7 9.8 6.7-.1 11-5.3 11.7-8.9-.2 0-.2.1-.2.1z" fill="#040405"/><path d="M366.3 75h2.5V43.5h-3.3v13.4c-1.5-2.2-3.3-3.7-5.7-4.3-2.4-.7-4.7-.5-7 .5l.9 3.1c.4-.1.8-.3 1.1-.4 1.4-.5 2.9-.5 4.3-.2 4.8 1.1 7.6 5.8 6.3 10.6-.9 3.2-3.6 5.6-7.1 6-3.1.4-6.5-1.2-7.9-4-1.1-1.6-1.5-3.4-1.2-5.3.3-1.7.4-3.4.3-5.2 0-.7-.1-1.4-.4-2h-.1c-4.2 4.5-4 11.7-.2 15.9 3.3 3.7 8.8 4.8 13.2 2.7 1.8-.9 3.2-2.2 4.4-4.1V75zm7.3 12.9l-1.2.1-1 1.3.9-.1 1.3-1.3zm-24.1 4.4c-.5-.2-1-.3-1.6-.2l-2.5.2.6 6.2 2.5-.2c.6-.1 1.1-.2 1.6-.5.4-.3.8-.7 1-1.2.2-.5.3-1 .2-1.7-.1-.6-.2-1.1-.5-1.6-.5-.5-.9-.8-1.3-1zm.5 3.8c-.1.3-.4.6-.6.8-.3.2-.6.3-1.1.4l-1.4.1-.4-4.2 1.4-.1c.4 0 .8 0 1.1.2.3.1.6.4.8.7.2.3.3.7.4 1.1 0 .3-.1.6-.2 1zm-23.1-1.7c-.5-.2-1-.3-1.6-.2l-2.5.2.6 6.2 2.5-.2c.6-.1 1.1-.2 1.6-.5.4-.3.8-.7 1-1.2.2-.5.3-1 .2-1.7-.1-.6-.2-1.1-.5-1.6-.4-.4-.8-.8-1.3-1zm.5 3.8c-.1.3-.4.6-.7.8-.3.2-.6.3-1.1.4l-1.4.1-.4-4.2 1.4-.1c.4 0 .8 0 1.1.2.3.1.6.4.8.7.2.3.3.7.4 1.1.1.3.1.7-.1 1zm42-8.2l-1.2.1-2.5 3.4-.3-3.2-1 .1.6 6.2 1-.1-.2-1.6.8-1.1 2.2 2.4 1.2-.1-2.8-3.2 2.2-2.9zm-7.6 6c-.4 0-.7 0-1.1-.2-.3-.2-.6-.4-.8-.7-.2-.3-.3-.7-.4-1.1 0-.4 0-.8.1-1.1.1-.3.4-.6.6-.8.3-.2.6-.3 1-.4.6-.1 1.1.1 1.6.6l.6-.8c-.3-.3-.6-.5-1-.7-.4-.1-.8-.2-1.3-.1-.6.1-1.1.2-1.5.6-.4.3-.8.7-1 1.2-.2.5-.3 1.1-.2 1.7.1.6.2 1.1.5 1.6s.7.8 1.2 1c.5.2 1 .3 1.6.3.5 0 .9-.2 1.2-.4.4-.2.7-.5.9-.9l-.7-.6c-.3.5-.7.8-1.3.8zm13.1-1.3l-3.2.3-.2-1.7 2.7-.3-.1-.9-2.7.3-.2-1.6 3.1-.3-.1-1-4.1.4.6 6.2 4.2-.4v-1zm-18.8-3.1c-.5-.2-1-.3-1.6-.3-.6.1-1.1.2-1.5.6-.4.3-.8.7-1 1.2-.2.5-.3 1.1-.2 1.7.1.6.2 1.1.5 1.6s.7.8 1.2 1c.5.2 1 .3 1.6.3.6-.1 1.1-.2 1.5-.6.4-.3.8-.7 1-1.2.2-.5.3-1.1.2-1.7-.1-.6-.2-1.1-.5-1.6-.3-.4-.7-.8-1.2-1zm.6 3.8c-.1.3-.3.6-.6.8-.3.2-.6.3-1 .4-.4 0-.7 0-1-.2-.3-.2-.6-.4-.8-.7-.2-.3-.3-.7-.4-1.1 0-.4 0-.8.2-1.1s.3-.6.6-.8c.3-.2.6-.3 1-.4.4 0 .7 0 1 .2.3.2.6.4.8.7.2.3.3.7.4 1.1 0 .4-.1.8-.2 1.1zM331 93.6l-1.9 6.4 1.1-.1.4-1.5 2.8-.3.7 1.4 1.1-.1-3.1-5.9-1.1.1zm-.1 3.9l.8-2.8 1.3 2.6-2.1.2zm8.1-4.6l-4.8.5.1 1 1.9-.2.5 5.2 1-.1-.5-5.2 1.9-.2-.1-1zm2.2-.2l-1.9 6.4 1.1-.1.4-1.5 2.8-.3.7 1.4 1.1-.1-3.1-5.9-1.1.1zm-.2 3.9l.8-2.8 1.3 2.6-2.1.2z" fill="#0582fe"/><linearGradient id="c" gradientUnits="userSpaceOnUse" x1="51.954" y1="359.082" x2="188.121" y2="359.082"><stop offset="0" stop-color="#8d8b8b"/><stop offset="1" stop-color="#e8e7e7"/></linearGradient><path d="M73 394.7s29.2 20.6 47.3 20.6c17.6 0 23.1-6.4 23.1-18.2 0-10.4-7.4-14-28-23.9-27.3-13.2-47.5-24-47.5-53.5 0-31.2 25.4-54.3 65.2-54.3 29.4 0 50.2 16.8 50.2 16.8l-16.1 32.7s-17.5-12.7-35.6-12.7c-16.9 0-24 6.7-24 15.8 0 11.6 10.5 16.9 32.9 24.8 31.4 11.1 47.7 28.6 47.7 56.2 0 29-22.1 54.1-71.5 54.1C79.4 453.1 52 430 52 430l21-35.3z" fill="url(#c)"/><path d="M409.9 478.3c-3.9 0-7.1 3.3-7.1 7.1 0 3.9 3.2 7.1 7.1 7.1 3.8 0 6.6-2.9 7.1-6.5 0-.2.1-.4.1-.7 0-.2 0-.4-.1-.7-.4-3.4-3.3-6.2-7.1-6.3zM234.1 73.4c-2.1 0-5.8 1.2-10.8 3.7-12.9 8.6-24.1 15.9-33.3 22-2.5-10.2-5-20-7.9-30.2-4.6-15.9-9.6-24.1-15-24.1-8.7 0-21.6 6.5-37.8 19.6-9.6 7.8-19.5 15.9-29.1 23.7-.4-.4-2.1-8.6-5.8-25.3-2.9-12.6-6.2-19.2-10-19.2-9.1 0-17 2.4-23.3 7.3-3.3 2.9-7.5 7.8-12.9 15.5-5.4 7.8-10 12.6-13.7 15.1 0-4.9 3.3-16.3 9.6-34.7 6.2-18.4 9.6-27.7 9.6-28.1 0-.4.4-2 .8-4.5.4-2 .4-4.1 0-5.3-.4-2-1.2-4.1-2.5-5.3-1.2 0-6.7-4.9-11.6-3.3-3.7.4-8.7 2.4-14.6 5.3-4.2 15.9-8.3 31.8-12.9 47.7C4.2 86.4 0 107.2 0 116.6c0 3.7 1.2 7.8 4.2 12.6 3.3 6.5 7.5 9.8 12.5 9.8s15-8.2 29.5-24.5c7.9-9.4 15.8-18.4 23.7-27.7 1.2 9.4 2.1 19.2 2.9 28.6 1.7 11.8 5.4 18.8 11.2 20.8 6.2.4 8.7-2 12.9-3.3.4 0 10-9 28.3-26.9 18.7-17.9 28.3-26.9 29.1-26.9 3.3 0 2.5 1.2 3.7 1.2 0 3.3.4 11.8 5 32.6 4.2 11.4 10.8 17.1 20.4 17.1 9.1 0 19.5-6.5 31.2-19.2 2.1-2 9.6-11.4 22.5-28.1-.1-6.1-.9-9.3-3-9.3zm225.8 111l-38.8-15c-1.7-.6-3.4-1.4-5.1-2-1.9-.6-3.9.5-5.6 1.2l-22.4 8.6-18.3 7.1c-1 .4-1.3 1.1-1.2 1.8-.1.4 0 .8.3 1.1v39.3c-2.6.8-4.5 2.7-4.6 5.1 0 2.4 2 4.3 4.6 5.1v68c0 2.4 4.5 2.4 4.5 0v-67.9c2.4-.6 4.2-2.3 4.6-4.4.1-.2.1-.5.1-.7 0-.2 0-.5-.1-.7-.4-2.1-2.2-3.8-4.6-4.4v-37.2l13.2 5.1v11.2c0 1.1.1 2 1.4 2.8 7.4 4.4 17.3 6.4 26.1 6.4 10.2.1 20.1-2.4 29-6.5.7-.3 1.2-1.1 1.2-1.8V194l15.7-6.1c1.6-.6 1.6-2.9 0-3.5zm-52-49.7c.8 0 2.5-1.4 5-4.1 1.3-1.6 2.7-3.1 4-4.7.2 1.6.4 3.2.5 4.8.3 2 .9 3.2 1.9 3.5 1.1.1 1.5-.3 2.2-.5.1 0 1.7-1.5 4.8-4.5 3.2-3 4.8-4.5 4.9-4.5.6 0 .4.2.6.2 0 .5.1 2 .8 5.5.7 1.9 1.8 2.9 3.4 2.9 1.5 0 3.3-1.1 5.3-3.2.4-.3 1.6-1.9 3.8-4.7 0-1-.1-1.6-.5-1.6s-1 .2-1.8.6c-2.2 1.4-4.1 2.7-5.6 3.7-.4-1.7-.8-3.4-1.3-5.1-.8-2.7-1.6-4.1-2.5-4.1-1.5 0-3.6 1.1-6.4 3.3-1.6 1.3-3.3 2.7-4.9 4-.1-.1-.4-1.4-1-4.3-.5-2.1-1.1-3.2-1.7-3.2-1.5 0-2.9.4-3.9 1.2-.6.5-1.3 1.3-2.2 2.6-.9 1.3-1.7 2.1-2.3 2.5 0-.8.6-2.7 1.6-5.8 1.1-3.1 1.6-4.7 1.6-4.7 0-.1.1-.3.1-.8.1-.3.1-.7 0-.9-.1-.3-.2-.7-.4-.9-.2 0-1.1-.8-2-.5-.6.1-1.5.4-2.5.9-.7 2.7-1.4 5.4-2.2 8-1.5 5.6-2.2 9.1-2.2 10.6 0 .6.2 1.3.7 2.1.7 1.1 1.4 1.7 2.2 1.7zm111.2-.5h1.7v-21.4h-1.7v21.4zm-.5-29.9c.5 0 .9-.4.9-.9s-.4-.9-.9-.9-.9.4-.9.9.4.9.9.9zm.3 2.1c.2-.9-.6-1.6-1.1-1.6 0 0-.7-.1-1.2.4s-.9 1.1-1.1 1.9c-.2.8.8.7.9.2 0-.5.3-.9 1-1.2 0 .9-.9 4.9-1.2 5.7s.6 1.1.8.5c0 0 .6-1.5.9-2.7 0 0 1.5.6 1.5 1.6s.8.6.8 0c0-.3-.1-1.1-.4-1.6-.2-.4-.7-.5-1.1-.8 0 0 0-.9.1-1.5.4 0 1.2.4 1.7.4.3 0 .5-.1.5-.4-.1-.6-1.5-.8-2.1-.9z" fill="#d43737"/></svg>